<?xml version="1.0" encoding="UTF-8" standalone="no"?>
<svg
   version="1.1"
   id="Layer_1"
   x="0px"
   y="0px"
   width="200"
   viewBox="0 0 200 200"
   enable-background="new 0 0 224 192"
   xml:space="preserve"
   sodipodi:docname="logo.svg"
   inkscape:version="1.2.1 (9c6d41e410, 2022-07-14)"
   height="200"
   xmlns:inkscape="http://www.inkscape.org/namespaces/inkscape"
   xmlns:sodipodi="http://sodipodi.sourceforge.net/DTD/sodipodi-0.dtd"
   xmlns="http://www.w3.org/2000/svg"
   xmlns:svg="http://www.w3.org/2000/svg"><defs
   id="defs4287" /><sodipodi:namedview
   id="namedview4285"
   pagecolor="#ffffff"
   bordercolor="#cccccc"
   borderopacity="1"
   inkscape:showpageshadow="0"
   inkscape:pageopacity="0"
   inkscape:pagecheckerboard="0"
   inkscape:deskcolor="#d1d1d1"
   showgrid="false"
   inkscape:zoom="1.7383042"
   inkscape:cx="88.016816"
   inkscape:cy="107.86375"
   inkscape:window-width="1920"
   inkscape:window-height="1112"
   inkscape:window-x="-8"
   inkscape:window-y="-8"
   inkscape:window-maximized="1"
   inkscape:current-layer="Layer_1" />
<path
   fill="#000000"
   opacity="1"
   stroke="none"
   d="m 80.737662,145.40823 c -2.796217,-14.65636 -3.730892,-15.07072 -18.339643,-10.53034 -7.275702,2.26128 -22.571741,4.57118 -31.49473,5.22837 -11.916414,0.8777 -16.159283,-2.85642 -12.272606,-4.29441 11.809407,-4.36922 24.30924,-3.92816 36.501741,-10.28526 -10.533363,-9.19268 -25.547914,-7.2626 -35.371861,-16.16277 3.462066,-6.131 7.767776,-4.24672 11.663365,-3.25151 11.503738,2.93899 23.086875,5.66218 34.395419,9.23955 8.724961,2.76006 11.933843,-0.26154 11.861312,-8.7502 -0.08725,-10.190603 0.003,-20.382637 -0.04986,-30.573715 C 77.611119,72.18828 77.851835,67.40675 73.272521,66.430828 54.539449,62.438588 36.348518,54.562651 16.51546,57.161442 16.571544,46.46921 18.9535,44.490473 29.039495,46.561167 40.418392,48.8973 51.670316,53.003995 63.650797,51.017696 62.744738,33.989747 56.242069,27.320148 39.684746,25.414099 c 9.517562,-12.68869 20.080412,-12.002056 26.620133,1.37868 4.06336,8.313946 9.029779,16.165462 15.802655,23.465314 10.576863,-7.010065 12.747541,-16.475589 9.731339,-28.299651 10.072307,-2.220019 17.551057,0.971912 25.059277,6.957859 -4.10332,8.346229 -17.334993,7.488739 -17.175603,19.662242 9.320193,-1.766946 19.989783,-3.724546 25.314673,-10.062768 10.98378,-13.073974 17.78819,-3.311194 28.35528,2.08187 -20.53139,8.005537 -39.15163,15.441333 -57.917632,22.489009 -6.676183,2.507281 -10.435703,5.31158 -9.008463,13.738848 1.738713,10.266468 -1.101762,21.159915 4.025488,32.652028 26.857507,-13.177933 44.906167,-34.962538 63.438327,-58.223674 5.61184,-0.707773 10.66435,2.005795 16.01603,8.110495 -9.26565,3.338896 -15.59959,8.290992 -20.22126,17.235525 12.66894,0.547915 23.57236,0.675363 29.44447,-12.724587 8.36996,5.958907 7.78081,12.876186 5.4242,21.14954 -12.16242,-2.261567 -23.5076,-0.881963 -34.35138,5.463955 6.11209,11.730156 12.69255,2.77695 21.62266,-0.274529 -2.48497,12.633305 -9.08766,19.227545 -20.02813,28.158375 3.12649,-15.43348 -3.81535,-21.777273 -13.7297,-23.259005 -14.1945,-2.121392 -20.01157,12.212195 -31.6786,17.781305 11.03668,8.04864 23.33126,-3.52982 33.16307,3.92769 -0.10076,7.57891 -5.6627,7.01401 -9.94802,7.47663 -9.69798,1.04698 -19.43158,1.90705 -29.17317,2.36268 -8.061416,0.37704 -11.756109,10.71795 -10.336205,18.68557"
   id="path4274"
   sodipodi:nodetypes="cssscccsssccsccsccccscsscccccccccsccssc"
   inkscape:export-filename="logo.png"
   inkscape:export-xdpi="500"
   inkscape:export-ydpi="500"
   style="stroke-width:2.54798" />




</svg>
